<svg xmlns="http://www.w3.org/2000/svg" viewBox="0 0 1024 1024" width="1024" height="1024">

  <defs>
    <linearGradient id="bg" x1="0" y1="0" x2="1" y2="1">
      <stop offset="0%" stop-color="#4ADE80"/>
      <stop offset="100%" stop-color="#16A34A"/>
    </linearGradient>
    <filter id="cardShadow" x="-8%" y="-8%" width="116%" height="130%">
      <feDropShadow dx="0" dy="16" stdDeviation="20"
                    flood-color="#0a3c14" flood-opacity="0.40"/>
    </filter>
  </defs>
  <rect width="1024" height="1024" rx="220" ry="220" fill="url(#bg)"/>
  <radialGradient id="topGlow" cx="50%" cy="0%" r="60%" gradientUnits="userSpaceOnUse">
    <stop offset="0%" stop-color="white" stop-opacity="0.14"/>
    <stop offset="100%" stop-color="white" stop-opacity="0"/>
  </radialGradient>
  <rect width="1024" height="1024" rx="220" ry="220" fill="url(#topGlow)"/>
  <rect x="180" y="312" width="664" height="400" rx="64" ry="64"
        fill="white" fill-opacity="0.96" filter="url(#cardShadow)"/>
  <rect x="182" y="314" width="660" height="58" rx="62" ry="62"
        fill="white" fill-opacity="0.28"/>
  <path d="M 512.0,512.0 L 512.00,362.00 A 150,150 0 0,1 558.35,654.66 Z" fill="#15803D"/>
  <path d="M 512.0,512.0 L 558.35,654.66 A 150,150 0 0,1 369.34,465.65 Z" fill="#FFFFFF"/>
  <path d="M 512.0,512.0 L 369.34,465.65 A 150,150 0 0,1 512.00,362.00 Z" fill="#86EFAC"/>
  <line x1="512" y1="512" x2="512.00" y2="362.00" stroke="white" stroke-width="7" stroke-linecap="round"/>
  <line x1="512" y1="512" x2="558.35" y2="654.66" stroke="white" stroke-width="7" stroke-linecap="round"/>
  <line x1="512" y1="512" x2="369.34" y2="465.65" stroke="white" stroke-width="7" stroke-linecap="round"/>
  <circle cx="512" cy="512" r="62" fill="white"/>
  <circle cx="512" cy="512" r="13" fill="#15803D" fill-opacity="0.80"/>
</svg>