<svg xmlns="http://www.w3.org/2000/svg" viewBox="0 0 1024 1024" width="1024" height="1024">
  <defs>
    <linearGradient id="bg" x1="0" y1="0" x2="1" y2="1">
      <stop offset="0%" stop-color="#4ADE80"/>
      <stop offset="100%" stop-color="#16A34A"/>
    </linearGradient>
    <clipPath id="circ"><circle cx="512" cy="512" r="464"/></clipPath>
  </defs>
  <circle cx="512" cy="512" r="464" fill="url(#bg)"/>
  <circle cx="512" cy="512" r="464" fill="none" stroke="white"
          stroke-opacity="0.11" stroke-width="14"/>
  <path d="M 512.0,512.0 L 512.00,176.00 A 336,336 0 0,1 615.83,831.55 Z" fill="#15803D"/>
  <path d="M 512.0,512.0 L 615.83,831.55 A 336,336 0 0,1 192.45,408.17 Z" fill="#FFFFFF"/>
  <path d="M 512.0,512.0 L 192.45,408.17 A 336,336 0 0,1 512.00,176.00 Z" fill="#86EFAC"/>
  <line x1="512" y1="512" x2="512.00" y2="176.00" stroke="white" stroke-width="10" stroke-linecap="round"/>
  <line x1="512" y1="512" x2="615.83" y2="831.55" stroke="white" stroke-width="10" stroke-linecap="round"/>
  <line x1="512" y1="512" x2="192.45" y2="408.17" stroke="white" stroke-width="10" stroke-linecap="round"/>
  <circle cx="512" cy="512" r="142" fill="#16A34A"/>
  <circle cx="512" cy="512" r="128" fill="#15803D"/>
  <rect x="504" y="506" width="16" height="46" rx="4" fill="white" fill-opacity="0.90"/>
  <polygon points="512,464 489,500 535,500" fill="white"/>
</svg>